:SAMPLES-PER-SECOND 30
:FULLY-SPECIFIED
:DEGREES
17
root  76.0661 40.3503 1.59357 -169.314 -85.475 167.316
RightUpLeg  -0.447974 -8.28731 -4.04652
RightLeg  6.97015 -7.99345 3.60201
RightFoot  -4.22619 0.138405 -2.68382
RightToes  0.00048216 0.542163 -0.142577
Spine  2.99198 -0.1044 -1.15588
Spine1  0.799452 -0.230758 1.08564
HEad  1.69302 -4.17496 1.17983
LeftShoulder1  1.04891 -2.08843 -11.5544
LeftArm  -22.3532 15.762 -15.0368
LeftForeArm  13.3706 -1.53859 0.687331
LeftHand  -0.25398 0.0180481 5.50724
RightShoulder  0.699342 0.330107 11.0613
RightArm  -25.712 -10.5204 6.10973
RightForeArm  6.28128 3.29777 0.494902
RightHand  -0.5119 0.355668 -10.403
LeftUpLeg  -0.915649 4.29018 0.0778191
LeftLeg  5.54565 14.0435 -2.61015
LeftFoot  -3.881 -0.12928 2.34176
LeftToes  1.06245e-005 4.65855e-005 -8.18504e-006
18
root  76.0727 40.3435 1.60988 -169.806 -85.5196 167.895
RightUpLeg  -0.582789 -8.19527 -3.96032
RightLeg  7.04045 -8.11291 3.51582
RightFoot  -4.38043 0.123739 -2.52097
RightToes  0.00048216 0.542163 -0.142577
Spine  3.09096 -0.11635 -1.31643
Spine1  0.682369 -0.318784 1.43556
HEad  1.7606 -4.14601 0.989308
LeftShoulder1  1.05041 -2.04457 -11.7006
LeftArm  -22.4434 15.7193 -14.9342
LeftForeArm  13.5113 -1.49455 0.746557
LeftHand  -0.25398 0.0180481 5.50724
RightShoulder  0.678128 0.236717 10.9355
RightArm  -25.4927 -10.6528 6.14687
RightForeArm  5.7166 3.49648 0.624683
RightHand  -0.498185 0.0674776 -10.6212
LeftUpLeg  -1.13384 4.4032 0.110902
LeftLeg  5.80744 13.9112 -2.54379
LeftFoot  -4.10432 -0.114947 2.20958
LeftToes  1.06245e-005 4.65855e-005 -8.18504e-006
19
root  76.072 40.3279 1.62431 -169.979 -85.469 168.126
RightUpLeg  -0.793917 -8.17919 -3.92527
RightLeg  7.37499 -8.05314 3.37697
RightFoot  -4.7556 0.0960111 -2.22643
RightToes  0.00048216 0.542163 -0.142577
Spine  3.77855 0.0434451 -1.64721
Spine1  -0.231905 -0.252522 1.92146
HEad  2.01777 -4.3345 0.821734
LeftShoulder1  1.06358 -2.1082 -11.7255
LeftArm  -22.3303 15.858 -14.9045
LeftForeArm  13.5512 -1.6742 0.683607
LeftHand  -0.25398 0.0180481 5.50724
RightShoulder  0.594122 -0.230082 10.9566
RightArm  -25.1621 -10.8096 6.1015
RightForeArm  5.58735 3.85479 0.791186
RightHand  -0.513495 0.193741 -10.7171
LeftUpLeg  -1.3255 4.57141 0.0989605
LeftLeg  6.15443 13.8273 -2.4568
LeftFoot  -4.42973 -0.107268 2.21954
LeftToes  1.06245e-005 4.65855e-005 -8.18504e-006
20
root  76.0633 40.3008 1.6375 -169.835 -85.3014 167.968
RightUpLeg  -1.07266 -8.30231 -3.9269
RightLeg  8.04156 -7.76819 3.13252
RightFoot  -5.43877 0.0587856 -1.85339
RightToes  0.00048216 0.542163 -0.142577
Spine  4.64295 0.262006 -1.89724
Spine1  -1.30239 -0.0898916 2.23722
HEad  2.11333 -4.64807 0.775318
LeftShoulder1  1.08995 -2.24803 -11.7265
LeftArm  -22.187 16.0259 -14.9063
LeftForeArm  13.6666 -1.90022 0.603046
LeftHand  -0.25398 0.0180481 5.50724
RightShoulder  0.518746 -0.664334 11.0829
RightArm  -25.1136 -11.0933 6.1568
RightForeArm  6.44309 4.17883 0.799362
RightHand  -0.597084 1.17189 -10.7041
LeftUpLeg  -1.46429 4.73143 0.0116296
LeftLeg  6.61488 13.8267 -2.2722
LeftFoot  -4.92074 -0.0896247 2.12491
LeftToes  1.06245e-005 4.65855e-005 -8.18504e-006
21
root  76.0493 40.2693 1.64428 -169.65 -85.1764 167.687
RightUpLeg  -1.29436 -8.5204 -3.89427
RightLeg  8.82114 -7.44481 2.78681
RightFoot  -6.32532 0.0209486 -1.45563
RightToes  0.00048216 0.542163 -0.142577
Spine  4.80047 0.283326 -1.8609
Spine1  -1.14954 -0.0739948 2.22323
HEad  1.60282 -4.65133 0.867158
LeftShoulder1  1.11169 -2.29367 -11.9772
LeftArm  -22.4576 15.9386 -14.9228
LeftForeArm  13.9765 -2.13349 0.676914
LeftHand  -0.25398 0.0180481 5.50724
RightShoulder  0.534503 -0.586727 11.1463
RightArm  -25.5229 -11.6347 6.68032
RightForeArm  7.22322 4.56744 0.690162
RightHand  -0.693856 2.22354 -10.7858
LeftUpLeg  -1.54973 4.88814 -0.088297
LeftLeg  7.16595 13.7438 -1.98542
LeftFoot  -5.55781 -0.0515528 1.67783
LeftToes  1.06245e-005 4.65855e-005 -8.18504e-006
